<?xml version="1.0" encoding="UTF-8" standalone="no"?>
<!-- Created with Inkscape (http://www.inkscape.org/) -->

<svg
   xmlns:dc="http://purl.org/dc/elements/1.1/"
   xmlns:cc="http://creativecommons.org/ns#"
   xmlns:rdf="http://www.w3.org/1999/02/22-rdf-syntax-ns#"
   xmlns:svg="http://www.w3.org/2000/svg"
   xmlns="http://www.w3.org/2000/svg"
   xmlns:sodipodi="http://sodipodi.sourceforge.net/DTD/sodipodi-0.dtd"
   xmlns:inkscape="http://www.inkscape.org/namespaces/inkscape"
   width="256"
   height="256"
   id="svg2"
   version="1.1"
   inkscape:version="0.48.3.1 r9886"
   sodipodi:docname="pokeball_min_max_close.svg"
   inkscape:export-filename="/home/georg/Bilder/pokeball-collection/pokeball_mono_min_256.png"
   inkscape:export-xdpi="90"
   inkscape:export-ydpi="90">
  <title
     id="title3022">Pokeball Actions</title>
  <defs
     id="defs4">
    <filter
       inkscape:collect="always"
       id="filter3961"
       x="-0.192"
       width="1.384"
       y="-0.192"
       height="1.384">
      <feGaussianBlur
         inkscape:collect="always"
         stdDeviation="7.68"
         id="feGaussianBlur3963" />
    </filter>
    <filter
       inkscape:collect="always"
       id="filter3973"
       x="-0.072"
       width="1.144"
       y="-0.144"
       height="1.288">
      <feGaussianBlur
         inkscape:collect="always"
         stdDeviation="7.2"
         id="feGaussianBlur3975" />
    </filter>
    <filter
       inkscape:collect="always"
       id="filter3981"
       x="-0.072"
       width="1.144"
       y="-0.144"
       height="1.288">
      <feGaussianBlur
         inkscape:collect="always"
         stdDeviation="7.2"
         id="feGaussianBlur3983" />
    </filter>
  </defs>
  <sodipodi:namedview
     id="base"
     pagecolor="#ffffff"
     bordercolor="#666666"
     borderopacity="1.0"
     inkscape:pageopacity="0.0"
     inkscape:pageshadow="2"
     inkscape:zoom="1.979899"
     inkscape:cx="296.96053"
     inkscape:cy="138.98802"
     inkscape:document-units="px"
     inkscape:current-layer="g3784"
     showgrid="true"
     showguides="true"
     inkscape:guide-bbox="true"
     inkscape:window-width="1024"
     inkscape:window-height="572"
     inkscape:window-x="0"
     inkscape:window-y="0"
     inkscape:window-maximized="1">
    <inkscape:grid
       type="xygrid"
       id="grid2985"
       empspacing="2"
       visible="true"
       enabled="true"
       snapvisiblegridlinesonly="true"
       spacingx="4px"
       spacingy="4px" />
    <sodipodi:guide
       orientation="0,1"
       position="128,128"
       id="guide2987" />
    <sodipodi:guide
       orientation="1,0"
       position="128,128"
       id="guide2989" />
  </sodipodi:namedview>
  <metadata
     id="metadata7">
    <rdf:RDF>
      <cc:Work
         rdf:about="">
        <dc:format>image/svg+xml</dc:format>
        <dc:type
           rdf:resource="http://purl.org/dc/dcmitype/StillImage" />
        <dc:title>Pokeball Actions</dc:title>
        <dc:date>20.04.2012</dc:date>
        <dc:creator>
          <cc:Agent>
            <dc:title>Georg Eckert</dc:title>
          </cc:Agent>
        </dc:creator>
        <dc:language>english</dc:language>
        <cc:license
           rdf:resource="http://creativecommons.org/licenses/by-nc-sa/3.0/" />
      </cc:Work>
      <cc:License
         rdf:about="http://creativecommons.org/licenses/by-nc-sa/3.0/">
        <cc:permits
           rdf:resource="http://creativecommons.org/ns#Reproduction" />
        <cc:permits
           rdf:resource="http://creativecommons.org/ns#Distribution" />
        <cc:requires
           rdf:resource="http://creativecommons.org/ns#Notice" />
        <cc:requires
           rdf:resource="http://creativecommons.org/ns#Attribution" />
        <cc:prohibits
           rdf:resource="http://creativecommons.org/ns#CommercialUse" />
        <cc:permits
           rdf:resource="http://creativecommons.org/ns#DerivativeWorks" />
        <cc:requires
           rdf:resource="http://creativecommons.org/ns#ShareAlike" />
      </cc:License>
    </rdf:RDF>
  </metadata>
  <g
     inkscape:groupmode="layer"
     id="layer3"
     inkscape:label="minimize"
     sodipodi:insensitive="true"
     style="display:none">
    <path
       inkscape:connector-curvature="0"
       id="path2991-2-6"
       d="m 240,128 c -18.60027,0 -80,0 -80,0 0,16 -16,32 -32,32 -16,0 -32,-16 -32,-32 0,0 -64.234816,0 -80,0 0,61.85589 50.144108,112 112,112 61.85589,0 112,-50.14411 112,-112 z"
       style="fill:#fff100;fill-opacity:1;stroke:none;display:inline"
       sodipodi:nodetypes="cssscsc" />
  </g>
  <g
     style="display:none"
     inkscape:label="minimize Kopie#1"
     id="g3008"
     inkscape:groupmode="layer"
     sodipodi:insensitive="true">
    <path
       sodipodi:nodetypes="cssscsc"
       style="fill:#333333;fill-opacity:1;stroke:none;display:inline"
       d="m 240,128 c -18.60027,0 -80,0 -80,0 0,16 -16,32 -32,32 -16,0 -32,-16 -32,-32 0,0 -64.234816,0 -80,0 0,61.85589 50.144108,112 112,112 61.85589,0 112,-50.14411 112,-112 z"
       id="path3010"
       inkscape:connector-curvature="0" />
  </g>
  <g
     style="display:none"
     inkscape:label="minimize Kopie"
     id="g3977"
     inkscape:groupmode="layer"
     sodipodi:insensitive="true">
    <path
       sodipodi:nodetypes="cssscsc"
       style="fill:#fff100;fill-opacity:1;stroke:none;display:inline;filter:url(#filter3981)"
       d="m 248,128 c -19.92887,0 -85.71428,0 -85.71428,0 0,17.14286 -17.14286,34.28571 -34.28572,34.28571 -17.14286,0 -34.285714,-17.14285 -34.285714,-34.28571 0,0 -68.823018,0 -85.714286,0 0,66.27417 53.72583,120 120,120 66.27417,0 120,-53.72583 120,-120 z"
       id="path3979"
       inkscape:connector-curvature="0" />
  </g>
  <g
     inkscape:groupmode="layer"
     id="layer4"
     inkscape:label="maximize"
     style="display:none"
     sodipodi:insensitive="true">
    <path
       inkscape:connector-curvature="0"
       id="path2991-2"
       d="m 240,128 c -18.60027,0 -80,0 -80,0 0,-16 -16,-32 -32,-32 -16,0 -32,16 -32,32 0,0 -64.234816,0 -80,0 0,-61.855892 50.144108,-112 112,-112 61.85589,0 112,50.144108 112,112 z"
       style="fill:#00be00;fill-opacity:1;stroke:none"
       sodipodi:nodetypes="cssscsc" />
  </g>
  <g
     style="display:none"
     inkscape:label="maximize Kopie#1"
     id="g3780"
     inkscape:groupmode="layer"
     sodipodi:insensitive="true">
    <path
       sodipodi:nodetypes="cssscsc"
       style="fill:#333333;fill-opacity:1;stroke:none"
       d="m 240,128 c -18.60027,0 -80,0 -80,0 0,-16 -16,-32 -32,-32 -16,0 -32,16 -32,32 0,0 -64.234816,0 -80,0 0,-61.855892 50.144108,-112 112,-112 61.85589,0 112,50.144108 112,112 z"
       id="path3782"
       inkscape:connector-curvature="0"
       inkscape:export-filename="/home/georg/Bilder/pokeball-collection/pokeball_mono_max_256.png"
       inkscape:export-xdpi="90"
       inkscape:export-ydpi="90" />
  </g>
  <g
     style="display:none"
     inkscape:label="maximize Kopie"
     id="g3965"
     inkscape:groupmode="layer"
     sodipodi:insensitive="true">
    <path
       sodipodi:nodetypes="cssscsc"
       style="fill:#00be00;fill-opacity:1;stroke:none;filter:url(#filter3973)"
       d="m 248,128 c -19.92885,0 -85.7143,0 -85.7143,0 0,-17.14285 -17.14284,-34.285717 -34.2857,-34.285717 -17.14286,0 -34.285714,17.142867 -34.285714,34.285717 0,0 -68.823016,0 -85.714286,0 C 8,61.72583 61.72583,8 128,8 194.27417,8 248,61.72583 248,128 z"
       id="path3967"
       inkscape:connector-curvature="0" />
  </g>
  <g
     inkscape:groupmode="layer"
     id="layer2"
     inkscape:label="close"
     sodipodi:insensitive="true"
     style="display:none">
    <path
       inkscape:connector-curvature="0"
       id="path3761-8"
       d="m 160,128 c 0,17.67311 -14.32689,32 -32,32 -17.67311,0 -32,-14.32689 -32,-32 0,-17.67311 14.32689,-32 32,-32 17.67311,0 32,14.32689 32,32 z"
       style="fill:#e60000;fill-opacity:1;stroke:none" />
  </g>
  <g
     style="display:none"
     inkscape:label="close Kopie#1"
     id="g3784"
     inkscape:groupmode="layer"
     sodipodi:insensitive="true">
    <path
       style="fill:#333333;fill-opacity:1;stroke:none"
       d="m 160,128 c 0,17.67311 -14.32689,32 -32,32 -17.67311,0 -32,-14.32689 -32,-32 0,-17.67311 14.32689,-32 32,-32 17.67311,0 32,14.32689 32,32 z"
       id="path3786"
       inkscape:connector-curvature="0"
       inkscape:export-filename="/home/georg/Bilder/pokeball-collection/pokeball_mono_close_256.png"
       inkscape:export-xdpi="360"
       inkscape:export-ydpi="360" />
  </g>
  <g
     style="display:none"
     inkscape:label="close Kopie"
     id="g3933"
     inkscape:groupmode="layer"
     sodipodi:insensitive="true">
    <path
       style="fill:#e60000;fill-opacity:1;stroke:none;filter:url(#filter3961)"
       d="m 176,128 c 0,26.50967 -21.49033,48 -48,48 -26.50967,0 -48,-21.49033 -48,-48 0,-26.50967 21.49033,-48 48,-48 26.50967,0 48,21.49033 48,48 z"
       id="path3935"
       inkscape:connector-curvature="0" />
  </g>
  <g
     inkscape:label="pokeball"
     inkscape:groupmode="layer"
     id="layer1"
     transform="translate(0,-796.36218)"
     sodipodi:insensitive="true">
    <g
       id="g3818">
      <path
         inkscape:connector-curvature="0"
         id="path2991"
         d="M 240,128 C 240,189.85589 189.85589,240 128,240 66.144108,240 16,189.85589 16,128 16,66.144108 66.144108,16 128,16 c 61.85589,0 112,50.144108 112,112 z"
         style="fill:none;stroke:#333333;stroke-width:16;stroke-miterlimit:4;stroke-opacity:1"
         transform="translate(0,796.36218)" />
      <path
         inkscape:connector-curvature="0"
         id="path3761"
         d="m 160,128 c 0,17.67311 -14.32689,32 -32,32 -17.67311,0 -32,-14.32689 -32,-32 0,-17.67311 14.32689,-32 32,-32 17.67311,0 32,14.32689 32,32 z"
         style="fill:none;stroke:#333333;stroke-width:16;stroke-linecap:round;stroke-linejoin:round;stroke-miterlimit:4;stroke-opacity:1;stroke-dashoffset:0"
         transform="translate(0,796.36218)" />
      <path
         transform="translate(0,796.36218)"
         inkscape:connector-curvature="0"
         id="path3763"
         d="m 16,128 80,0"
         style="fill:#333333;fill-opacity:1;stroke:#333333;stroke-width:12;stroke-linecap:butt;stroke-linejoin:miter;stroke-miterlimit:4;stroke-opacity:1;stroke-dasharray:none" />
      <path
         inkscape:connector-curvature="0"
         id="path3763-7"
         d="m 160,924.36218 80,0"
         style="fill:#333333;fill-opacity:1;stroke:#333333;stroke-width:12;stroke-linecap:butt;stroke-linejoin:miter;stroke-miterlimit:4;stroke-opacity:1;stroke-dasharray:none" />
    </g>
  </g>
</svg>
